<?xml version="1.0" encoding="UTF-8" standalone="no"?>
<!DOCTYPE svg PUBLIC "-//W3C//DTD SVG 1.1//EN"
 "http://www.w3.org/Graphics/SVG/1.1/DTD/svg11.dtd">
<!-- Generated by graphviz version 2.40.1 (20161225.0304)
 -->
<!-- Title: G Pages: 1 -->
<svg width="272pt" height="219pt"
 viewBox="0.00 0.00 271.94 219.22" xmlns="http://www.w3.org/2000/svg" xmlns:xlink="http://www.w3.org/1999/xlink">
<g id="graph0" class="graph" transform="scale(1 1) rotate(0) translate(4 215.216)">
<title>G</title>
<polygon fill="#ffffff" stroke="transparent" points="-4,4 -4,-215.216 267.9443,-215.216 267.9443,4 -4,4"/>
<!-- a -->
<g id="node1" class="node">
<title>a</title>
<polygon fill="#add8e6" stroke="#add8e6" points="169.1359,-189.9308 142.1897,-202.28 115.2436,-189.9308 125.5361,-169.9493 158.8434,-169.9493 169.1359,-189.9308"/>
<polygon fill="none" stroke="#add8e6" points="174.5871,-191.8052 142.1897,-206.6527 109.7924,-191.8052 123.0962,-165.9777 161.2833,-165.9777 174.5871,-191.8052"/>
<polygon fill="none" stroke="#add8e6" points="180.0383,-193.6796 142.1897,-211.0254 104.3412,-193.6796 120.6562,-162.0061 163.7232,-162.0061 180.0383,-193.6796"/>
<text text-anchor="middle" x="142.1897" y="-180.208" font-family="Times,serif" font-size="14.00" fill="#000000">a</text>
</g>
<!-- b -->
<g id="node2" class="node">
<title>b</title>
<ellipse fill="none" stroke="#000000" cx="142.1897" cy="-103.6" rx="27" ry="18"/>
<text text-anchor="middle" x="142.1897" y="-99.4" font-family="Times,serif" font-size="14.00" fill="#000000">b</text>
</g>
<!-- a&#45;&gt;b -->
<g id="edge1" class="edge">
<title>a&#45;&gt;b</title>
<path fill="none" stroke="#000000" d="M142.1897,-161.8985C142.1897,-152.5701 142.1897,-141.647 142.1897,-131.7934"/>
<polygon fill="#000000" stroke="#000000" points="145.6898,-131.6468 142.1897,-121.6469 138.6898,-131.6469 145.6898,-131.6468"/>
</g>
<!-- c -->
<g id="node3" class="node">
<title>c</title>
<polygon fill="none" stroke="#000000" points="156.5697,-42.8 24.3604,-42.8 -.1902,-6.8 132.019,-6.8 156.5697,-42.8"/>
<text text-anchor="middle" x="78.1897" y="-20.6" font-family="Times,serif" font-size="14.00" fill="#000000">hello world</text>
</g>
<!-- b&#45;&gt;c -->
<g id="edge2" class="edge">
<title>b&#45;&gt;c</title>
<path fill="none" stroke="#000000" d="M129.2384,-87.6536C120.6914,-77.1302 109.294,-63.0972 99.4369,-50.9606"/>
<polygon fill="#000000" stroke="#000000" points="101.9341,-48.4836 92.9128,-42.9278 96.5004,-52.8967 101.9341,-48.4836"/>
</g>
<!-- d -->
<g id="node4" class="node">
<title>d</title>
<polygon fill="none" stroke="#000000" points="206.1897,-.1984 238.1513,-37.1008 174.2281,-37.1008 206.1897,-.1984"/>
<text text-anchor="middle" x="206.1897" y="-20.6" font-family="Times,serif" font-size="14.00" fill="#000000">d</text>
</g>
<!-- b&#45;&gt;d -->
<g id="edge3" class="edge">
<title>b&#45;&gt;d</title>
<path fill="none" stroke="#000000" d="M155.1411,-87.6536C165.0885,-75.4058 178.8972,-58.4039 189.6448,-45.171"/>
<polygon fill="#000000" stroke="#000000" points="192.6065,-47.076 196.1941,-37.1071 187.1728,-42.6629 192.6065,-47.076"/>
</g>
<!-- e -->
<g id="node5" class="node">
<title>e</title>
<polygon fill="none" stroke="#000000" points="263.7008,-202.408 198.6787,-202.408 217.4381,-166.408 244.9413,-166.408 263.7008,-202.408"/>
<text text-anchor="middle" x="231.1897" y="-180.208" font-family="Times,serif" font-size="14.00" fill="#000000">e</text>
</g>
</g>
</svg>
